<svg width="10" height="10" viewBox="0 0 8 9" fill="none" xmlns="http://www.w3.org/2000/svg">
<path d="M7.12773 0.630127H6.38006V1.43169C6.38006 1.59201 6.25545 1.69888 6.13084 1.69888C6.00623 1.69888 5.88162 1.59201 5.88162 1.43169V0.630127H1.89408V1.43169C1.89408 1.59201 1.76947 1.69888 1.64486 1.69888C1.52025 1.69888 1.39564 1.59201 1.39564 1.43169V0.630127H0.647975C0.274143 0.630127 0 0.977472 0 1.43169V2.39357H7.97508V1.43169C7.97508 0.977472 7.52648 0.630127 7.12773 0.630127ZM0 2.95467V7.84422C0 8.32516 0.274143 8.64578 0.672897 8.64578H7.15265C7.5514 8.64578 8 8.29844 8 7.84422V2.95467H0ZM2.21807 7.44343H1.61994C1.52025 7.44343 1.42056 7.36328 1.42056 7.22968V6.56171C1.42056 6.45484 1.49533 6.34796 1.61994 6.34796H2.24299C2.34268 6.34796 2.44237 6.42812 2.44237 6.56171V7.22968C2.41745 7.36328 2.34268 7.44343 2.21807 7.44343ZM2.21807 5.03874H1.61994C1.52025 5.03874 1.42056 4.95858 1.42056 4.82499V4.15702C1.42056 4.05014 1.49533 3.94326 1.61994 3.94326H2.24299C2.34268 3.94326 2.44237 4.02342 2.44237 4.15702V4.82499C2.41745 4.95858 2.34268 5.03874 2.21807 5.03874ZM4.21184 7.44343H3.58879C3.4891 7.44343 3.38941 7.36328 3.38941 7.22968V6.56171C3.38941 6.45484 3.46417 6.34796 3.58879 6.34796H4.21184C4.31153 6.34796 4.41122 6.42812 4.41122 6.56171V7.22968C4.41122 7.36328 4.33645 7.44343 4.21184 7.44343ZM4.21184 5.03874H3.58879C3.4891 5.03874 3.38941 4.95858 3.38941 4.82499V4.15702C3.38941 4.05014 3.46417 3.94326 3.58879 3.94326H4.21184C4.31153 3.94326 4.41122 4.02342 4.41122 4.15702V4.82499C4.41122 4.95858 4.33645 5.03874 4.21184 5.03874ZM6.20561 7.44343H5.58255C5.48287 7.44343 5.38318 7.36328 5.38318 7.22968V6.56171C5.38318 6.45484 5.45794 6.34796 5.58255 6.34796H6.20561C6.3053 6.34796 6.40498 6.42812 6.40498 6.56171V7.22968C6.40498 7.36328 6.33022 7.44343 6.20561 7.44343ZM6.20561 5.03874H5.58255C5.48287 5.03874 5.38318 4.95858 5.38318 4.82499V4.15702C5.38318 4.05014 5.45794 3.94326 5.58255 3.94326H6.20561C6.3053 3.94326 6.40498 4.02342 6.40498 4.15702V4.82499C6.40498 4.95858 6.33022 5.03874 6.20561 5.03874Z" fill="#2F80ED"/>
</svg>
