<svg width="35" height="35" viewBox="0 0 35 35" fill="none" xmlns="http://www.w3.org/2000/svg">
<path d="M25.9 26.6H9.1C7.91 26.6 7 25.69 7 24.5V9.1C7 7.91 7.77 7 8.75 7H9.8V8.4H8.75C8.61 8.4 8.4 8.68 8.4 9.1V24.5C8.4 24.92 8.68 25.2 9.1 25.2H25.9C26.32 25.2 26.6 24.92 26.6 24.5V9.1C26.6 8.68 26.39 8.4 26.25 8.4H25.2V7H26.25C27.23 7 28 7.91 28 9.1V24.5C28 25.69 27.09 26.6 25.9 26.6Z" fill="#CCCCCC"/>
<path d="M11.9 9.8001C11.48 9.8001 11.2 9.5201 11.2 9.1001V6.3001C11.2 5.8801 11.48 5.6001 11.9 5.6001C12.32 5.6001 12.5999 5.8801 12.5999 6.3001V9.1001C12.5999 9.5201 12.32 9.8001 11.9 9.8001Z" fill="#CCCCCC"/>
<path d="M23.1 9.8001C22.68 9.8001 22.4 9.5201 22.4 9.1001V6.3001C22.4 5.8801 22.68 5.6001 23.1 5.6001C23.52 5.6001 23.8 5.8801 23.8 6.3001V9.1001C23.8 9.5201 23.52 9.8001 23.1 9.8001Z" fill="#CCCCCC"/>
<path d="M14 7H21V8.4H14V7Z" fill="#CCCCCC"/>
<path d="M8.40002 11.2H26.6V12.5999H8.40002V11.2Z" fill="#CCCCCC"/>
<path d="M23.8 14H25.2V15.4H23.8V14Z" fill="#CCCCCC"/>
<path d="M21 14H22.4V15.4H21V14Z" fill="#CCCCCC"/>
<path d="M18.2 14H19.5999V15.4H18.2V14Z" fill="#CCCCCC"/>
<path d="M15.4 14H16.8V15.4H15.4V14Z" fill="#CCCCCC"/>
<path d="M12.6 14H14V15.4H12.6V14Z" fill="#CCCCCC"/>
<path d="M23.8 16.8H25.2V18.2H23.8V16.8Z" fill="#CCCCCC"/>
<path d="M21 16.8H22.4V18.2H21V16.8Z" fill="#CCCCCC"/>
<path d="M18.2 16.8H19.5999V18.2H18.2V16.8Z" fill="#CCCCCC"/>
<path d="M15.4 16.8H16.8V18.2H15.4V16.8Z" fill="#CCCCCC"/>
<path d="M12.6 16.8H14V18.2H12.6V16.8Z" fill="#CCCCCC"/>
<path d="M9.80005 16.8H11.2V18.2H9.80005V16.8Z" fill="#CCCCCC"/>
<path d="M23.8 19.6001H25.2V21.0001H23.8V19.6001Z" fill="#CCCCCC"/>
<path d="M21 19.6001H22.4V21.0001H21V19.6001Z" fill="#CCCCCC"/>
<path d="M18.2 19.6001H19.5999V21.0001H18.2V19.6001Z" fill="#CCCCCC"/>
<path d="M15.4 19.6001H16.8V21.0001H15.4V19.6001Z" fill="#CCCCCC"/>
<path d="M12.6 19.6001H14V21.0001H12.6V19.6001Z" fill="#CCCCCC"/>
<path d="M9.80005 19.6001H11.2V21.0001H9.80005V19.6001Z" fill="#CCCCCC"/>
<path d="M21 22.3999H22.4V23.7999H21V22.3999Z" fill="#CCCCCC"/>
<path d="M18.2 22.3999H19.5999V23.7999H18.2V22.3999Z" fill="#CCCCCC"/>
<path d="M15.4 22.3999H16.8V23.7999H15.4V22.3999Z" fill="#CCCCCC"/>
<path d="M12.6 22.3999H14V23.7999H12.6V22.3999Z" fill="#CCCCCC"/>
<path d="M9.80005 22.3999H11.2V23.7999H9.80005V22.3999Z" fill="#CCCCCC"/>
</svg>

