<svg width="13" height="3" viewBox="0 0 13 3" fill="none" xmlns="http://www.w3.org/2000/svg">
<path d="M2.5 1.25C2.5 1.58152 2.3683 1.89946 2.13388 2.13388C1.89946 2.3683 1.58152 2.5 1.25 2.5C0.918479 2.5 0.600537 2.3683 0.366117 2.13388C0.131696 1.89946 0 1.58152 0 1.25C0 0.918479 0.131696 0.600537 0.366117 0.366117C0.600537 0.131696 0.918479 0 1.25 0C1.58152 0 1.89946 0.131696 2.13388 0.366117C2.3683 0.600537 2.5 0.918479 2.5 1.25Z" fill="black" fill-opacity="0.56"/>
<path d="M7.5 1.25C7.5 1.58152 7.3683 1.89946 7.13388 2.13388C6.89946 2.3683 6.58152 2.5 6.25 2.5C5.91848 2.5 5.60054 2.3683 5.36612 2.13388C5.1317 1.89946 5 1.58152 5 1.25C5 0.918479 5.1317 0.600537 5.36612 0.366117C5.60054 0.131696 5.91848 0 6.25 0C6.58152 0 6.89946 0.131696 7.13388 0.366117C7.3683 0.600537 7.5 0.918479 7.5 1.25Z" fill="black" fill-opacity="0.56"/>
<path d="M11.25 2.5C11.5815 2.5 11.8995 2.3683 12.1339 2.13388C12.3683 1.89946 12.5 1.58152 12.5 1.25C12.5 0.918479 12.3683 0.600537 12.1339 0.366117C11.8995 0.131696 11.5815 0 11.25 0C10.9185 0 10.6005 0.131696 10.3661 0.366117C10.1317 0.600537 10 0.918479 10 1.25C10 1.58152 10.1317 1.89946 10.3661 2.13388C10.6005 2.3683 10.9185 2.5 11.25 2.5Z" fill="black" fill-opacity="0.56"/>
</svg>
