<svg width="9" height="9" viewBox="0 0 9 9" fill="none" xmlns="http://www.w3.org/2000/svg">
<path d="M7.57302 0.550049H6.7979V1.36246C6.7979 1.52494 6.66872 1.63327 6.53953 1.63327C6.41035 1.63327 6.28116 1.52494 6.28116 1.36246V0.550049H2.14722V1.36246C2.14722 1.52494 2.01803 1.63327 1.88884 1.63327C1.75966 1.63327 1.63047 1.52494 1.63047 1.36246V0.550049H0.855359C0.467802 0.550049 0.183594 0.902094 0.183594 1.36246V2.33736H8.45148V1.36246C8.45148 0.902094 7.98641 0.550049 7.57302 0.550049ZM0.183594 2.90605V7.86176C0.183594 8.34921 0.467802 8.67418 0.881197 8.67418H7.59885C8.01225 8.67418 8.47732 8.32213 8.47732 7.86176V2.90605H0.183594ZM2.4831 7.45556H1.86301C1.75966 7.45556 1.65631 7.37432 1.65631 7.23891V6.5619C1.65631 6.45358 1.73382 6.34526 1.86301 6.34526H2.50894C2.61228 6.34526 2.71563 6.4265 2.71563 6.5619V7.23891C2.6898 7.37432 2.61228 7.45556 2.4831 7.45556ZM2.4831 5.01832H1.86301C1.75966 5.01832 1.65631 4.93708 1.65631 4.80167V4.12466C1.65631 4.01634 1.73382 3.90802 1.86301 3.90802H2.50894C2.61228 3.90802 2.71563 3.98926 2.71563 4.12466V4.80167C2.6898 4.93708 2.61228 5.01832 2.4831 5.01832ZM4.55007 7.45556H3.90414C3.80079 7.45556 3.69744 7.37432 3.69744 7.23891V6.5619C3.69744 6.45358 3.77496 6.34526 3.90414 6.34526H4.55007C4.65342 6.34526 4.75677 6.4265 4.75677 6.5619V7.23891C4.75677 7.37432 4.67926 7.45556 4.55007 7.45556ZM4.55007 5.01832H3.90414C3.80079 5.01832 3.69744 4.93708 3.69744 4.80167V4.12466C3.69744 4.01634 3.77496 3.90802 3.90414 3.90802H4.55007C4.65342 3.90802 4.75677 3.98926 4.75677 4.12466V4.80167C4.75677 4.93708 4.67926 5.01832 4.55007 5.01832ZM6.61704 7.45556H5.97111C5.86776 7.45556 5.76442 7.37432 5.76442 7.23891V6.5619C5.76442 6.45358 5.84193 6.34526 5.97111 6.34526H6.61704C6.72039 6.34526 6.82374 6.4265 6.82374 6.5619V7.23891C6.82374 7.37432 6.74623 7.45556 6.61704 7.45556ZM6.61704 5.01832H5.97111C5.86776 5.01832 5.76442 4.93708 5.76442 4.80167V4.12466C5.76442 4.01634 5.84193 3.90802 5.97111 3.90802H6.61704C6.72039 3.90802 6.82374 3.98926 6.82374 4.12466V4.80167C6.82374 4.93708 6.74623 5.01832 6.61704 5.01832Z" fill="#2F80ED"/>
</svg>

