<svg width="19" height="20" viewBox="0 0 19 20" fill="none" xmlns="http://www.w3.org/2000/svg">
<circle cx="9.3464" cy="9.94222" r="9.34615" fill="#EAF2FD"/>
<path d="M12.5944 5.78838H11.818V6.61915C11.818 6.7853 11.6886 6.89607 11.5592 6.89607C11.4298 6.89607 11.3004 6.7853 11.3004 6.61915V5.78838H7.1595V6.61915C7.1595 6.7853 7.03009 6.89607 6.90069 6.89607C6.77129 6.89607 6.64188 6.7853 6.64188 6.61915V5.78838H5.86546C5.47725 5.78838 5.19257 6.14838 5.19257 6.61915V7.61607H13.4744V6.61915C13.4744 6.14838 13.0085 5.78838 12.5944 5.78838ZM5.19257 8.19761V13.2653C5.19257 13.7638 5.47725 14.0961 5.89134 14.0961H12.6203C13.0344 14.0961 13.5003 13.7361 13.5003 13.2653V8.19761H5.19257ZM7.49594 12.8499H6.87481C6.77129 12.8499 6.66776 12.7668 6.66776 12.6284V11.9361C6.66776 11.8253 6.74541 11.7145 6.87481 11.7145H7.52183C7.62535 11.7145 7.72887 11.7976 7.72887 11.9361V12.6284C7.70299 12.7668 7.62535 12.8499 7.49594 12.8499ZM7.49594 10.3576H6.87481C6.77129 10.3576 6.66776 10.2745 6.66776 10.1361V9.44376C6.66776 9.33299 6.74541 9.22222 6.87481 9.22222H7.52183C7.62535 9.22222 7.72887 9.3053 7.72887 9.44376V10.1361C7.70299 10.2745 7.62535 10.3576 7.49594 10.3576ZM9.5664 12.8499H8.91938C8.81586 12.8499 8.71234 12.7668 8.71234 12.6284V11.9361C8.71234 11.8253 8.78998 11.7145 8.91938 11.7145H9.5664C9.66992 11.7145 9.77344 11.7976 9.77344 11.9361V12.6284C9.77344 12.7668 9.6958 12.8499 9.5664 12.8499ZM9.5664 10.3576H8.91938C8.81586 10.3576 8.71234 10.2745 8.71234 10.1361V9.44376C8.71234 9.33299 8.78998 9.22222 8.91938 9.22222H9.5664C9.66992 9.22222 9.77344 9.3053 9.77344 9.44376V10.1361C9.77344 10.2745 9.6958 10.3576 9.5664 10.3576ZM11.6369 12.8499H10.9898C10.8863 12.8499 10.7828 12.7668 10.7828 12.6284V11.9361C10.7828 11.8253 10.8604 11.7145 10.9898 11.7145H11.6369C11.7404 11.7145 11.8439 11.7976 11.8439 11.9361V12.6284C11.8439 12.7668 11.7663 12.8499 11.6369 12.8499ZM11.6369 10.3576H10.9898C10.8863 10.3576 10.7828 10.2745 10.7828 10.1361V9.44376C10.7828 9.33299 10.8604 9.22222 10.9898 9.22222H11.6369C11.7404 9.22222 11.8439 9.3053 11.8439 9.44376V10.1361C11.8439 10.2745 11.7663 10.3576 11.6369 10.3576Z" fill="#2F80ED"/>
</svg>

